# xmcd CD database file
#
# Track frame offsets:
#	150
#	21672
#	40280
#	58265
#	78817
#	98275
#	116757
#	131322
#	148885
#	166032
#	189375
#	207095
#	237672
#
# Disc length: 3420 seconds
#
# Revision: 0
# Processed by: cddbd v1.4PL0 Copyright (c) Steve Scherf et al.
# Submitted via: CDex 1.40Beta9
#
DISCID=af0d5a0d
DTITLE=John Mohead - Mary's Porch
DYEAR=1998
DGENRE=Blues
TTITLE0=Muddy Water
TTITLE1=Nobody's Gonna Love You
TTITLE2=Stay With Me
TTITLE3=By The Way
TTITLE4=I'll Take The Highway
TTITLE5=Train Leavin' Lula
TTITLE6=Son Of The South
TTITLE7=Here to Stay
TTITLE8=Delta Triangle
TTITLE9=Adam And Eve
TTITLE10=Missin' You
TTITLE11=Due South
TTITLE12=Mary's Porch
EXTD=YEAR: 1998 ID3G: 0
EXTT0=
EXTT1=
EXTT2=
EXTT3=
EXTT4=
EXTT5=
EXTT6=
EXTT7=
EXTT8=
EXTT9=
EXTT10=
EXTT11=
EXTT12=
PLAYORDER=
